<svg width="267" height="196" viewBox="0 0 267 196" fill="none" xmlns="http://www.w3.org/2000/svg">
<path d="M13.9305 195.562C13.9127 195.466 12.1852 185.848 15.7131 177.86C19.241 169.872 26.7717 166.349 26.8474 166.315L27.1916 166.157L27.2729 166.595C27.2907 166.691 29.0182 176.309 25.4903 184.297C21.9625 192.285 14.4317 195.808 14.356 195.842L14.0117 196L13.9305 195.562ZM26.7195 167.226C25.2111 168.018 19.2576 171.485 16.278 178.232C13.2981 184.979 14.1971 192.958 14.4838 194.931C15.9917 194.141 21.9427 190.679 24.9253 183.925C27.9051 177.178 27.0064 169.2 26.7195 167.226V167.226Z" fill="#F1F1F1"/>
<path d="M22.7942 181.495C16.4543 186.152 14.0126 195.402 14.0126 195.402C14.0126 195.402 21.8499 197.102 28.1898 192.445C34.5296 187.788 36.9713 178.538 36.9713 178.538C36.9713 178.538 29.134 176.838 22.7942 181.495Z" fill="#F1F1F1"/>
<path d="M118.803 106.839C118.9 106.23 118.886 105.602 118.763 105C118.639 104.398 118.409 103.836 118.088 103.355C117.768 102.873 117.365 102.483 116.907 102.212C116.45 101.941 115.95 101.796 115.441 101.787L112.505 92.7725L107.583 93.6148L111.876 106.274C111.92 107.317 112.276 108.305 112.876 109.049C113.477 109.794 114.28 110.244 115.134 110.313C115.988 110.383 116.833 110.068 117.51 109.427C118.186 108.787 118.646 107.866 118.803 106.839Z" fill="#9F616A"/>
<path d="M109.736 103.672L108.211 99.2314L98.707 77.1442L99.2238 36.2751L99.323 36.259C105.404 35.2781 109.519 69.4882 109.691 70.9451L115.695 96.0184L117.125 101.545L109.736 103.672Z" fill="#44BBA4"/>
<path d="M95.133 189.851L99.7537 189.85L101.952 168.09L95.1321 168.09L95.133 189.851Z" fill="#9F616A"/>
<path d="M93.9543 188.009L103.054 188.008H103.055C104.593 188.008 106.067 188.754 107.155 190.082C108.243 191.41 108.854 193.211 108.854 195.089V195.319L93.9546 195.319L93.9543 188.009Z" fill="#2F2E41"/>
<path d="M52.6473 181.255L56.4386 184.481L68.432 168.162L62.8366 163.402L52.6473 181.255Z" fill="#9F616A"/>
<path d="M52.5429 178.921L60.0089 185.273L60.0092 185.273C61.2709 186.347 62.1317 187.989 62.4022 189.837C62.6726 191.686 62.3306 193.59 61.4513 195.131L61.3436 195.319L49.1197 184.919L52.5429 178.921Z" fill="#2F2E41"/>
<path d="M92.5935 184.736L92.3938 143.914L89.4865 118.246L84.066 140.819L84.0555 140.838L64.4124 175.656L56.7691 170.928L56.811 170.806C57.2781 169.45 68.2847 137.591 71.2432 137.591C71.5015 137.613 71.7604 137.558 71.9975 137.431C72.2346 137.303 72.4428 137.108 72.6043 136.86C73.4726 135.445 72.7655 132.441 72.7582 132.411C71.9113 128.123 74.0407 126.663 74.4648 126.419L75.6056 97.6676L75.7238 97.6776L106.649 100.326L105.351 136.273L102.561 183.37L102.465 183.383L92.5935 184.736Z" fill="#2F2E41"/>
<path d="M107.121 106.697L106.988 106.684L73.7285 103.41L73.8106 89.9743L75.4385 54.8925L75.4477 54.8681L82.077 37.2961L86.7764 34.6979L93.6327 34.2574L93.6494 34.2625L99.9066 36.1553L106.416 93.205L107.121 106.697Z" fill="#44BBA4"/>
<path d="M94.707 29.754C98.9506 26.9217 100.51 20.4256 98.1904 15.2444C95.8706 10.0632 90.55 8.15909 86.3065 10.9914C82.0629 13.8237 80.5033 20.3198 82.8231 25.501C85.1428 30.6822 90.4634 32.5863 94.707 29.754Z" fill="#9F616A"/>
<path d="M81.7002 23.0565V18.8908C81.7002 18.8908 78.9487 14.9343 81.9753 13.9377C81.9753 13.9377 82.8008 3.97118 89.9545 8.62221C89.9545 8.62221 99.8598 6.62891 98.7592 13.6055C98.7592 13.6055 101.236 11.7841 100.41 16.4351L98.8137 23.9271C98.8137 23.9271 99.5846 18.9781 97.1083 18.3137L95.7326 17.317C95.7326 17.317 91.8806 21.9681 86.1025 16.3204C86.1025 16.3204 83.6262 15.5988 83.9013 18.5887C84.1765 21.5787 81.7002 23.0565 81.7002 23.0565Z" fill="#2F2E41"/>
<path d="M89.595 96.6632C89.6005 96.0427 89.4946 95.4281 89.2845 94.863C89.0745 94.2978 88.7655 93.7958 88.3794 93.3922C87.9933 92.9885 87.5393 92.6932 87.0496 92.527C86.5599 92.3607 86.0462 92.3276 85.5449 92.43L81.3317 84.2051L76.6135 86.1121L82.6969 97.6251C82.8936 98.6421 83.3889 99.5357 84.0891 100.136C84.7893 100.737 85.6456 101.004 86.4959 100.885C87.3462 100.767 88.1313 100.271 88.7025 99.4932C89.2737 98.7151 89.5913 97.7081 89.595 96.6632Z" fill="#9F616A"/>
<path d="M78.7132 94.0706L71.0909 75.1761L71.0977 75.1302C71.1284 74.921 74.1966 54.1207 76.5433 46.4752C78.9047 38.7812 82.1372 37.2364 82.2736 37.1744L82.3418 37.1434L85.2402 40.5378L81.2253 73.2571L85.553 89.0371L78.7132 94.0706Z" fill="#44BBA4"/>
<path d="M267 0H252.242V18.0192H267V0Z" fill="#F1F1F1"/>
<path d="M151.5 70.118H136.741V88.1372H151.5V70.118Z" fill="#F1F1F1"/>
<path d="M145.025 80.2411H261.704V8.12192H145.025V80.2411Z" fill="white"/>
<path d="M262.667 81.4163H144.062V6.9467H262.667V81.4163ZM145.987 79.066H260.742V9.29703H145.987V79.066Z" fill="#E5E5E5"/>
<path d="M248.802 33.42H159.03V37.0548H248.802V33.42Z" fill="#E5E5E5"/>
<path d="M248.802 42.2349H159.03V45.8698H248.802V42.2349Z" fill="#E5E5E5"/>
<path d="M248.802 55.2504H232.118V58.4048H248.802V55.2504Z" fill="#6C63FF"/>
<path d="M122.559 195.984H0.320834C0.235744 195.984 0.154138 195.943 0.0939699 195.869C0.0338018 195.796 0 195.696 0 195.592C0 195.489 0.0338018 195.389 0.0939699 195.315C0.154138 195.242 0.235744 195.201 0.320834 195.201H122.559C122.644 195.201 122.725 195.242 122.785 195.315C122.846 195.389 122.879 195.489 122.879 195.592C122.879 195.696 122.846 195.796 122.785 195.869C122.725 195.943 122.644 195.984 122.559 195.984Z" fill="#CBCBCB"/>
</svg>
