<svg width="44" height="42" viewBox="0 0 44 42" xmlns="http://www.w3.org/2000/svg">
<path fill-rule="evenodd" clip-rule="evenodd" d="M14.9624 0.644683C11.3279 1.77265 8.69693 3.46375 5.46866 6.74788C1.00477 11.2879 0 13.9188 0 21.0692C0 26.0576 0.22663 27.5577 1.32241 29.8148C3.1686 33.6173 8.25271 38.5341 12.2905 40.4202C15.3283 41.84 16.3132 42 22 42C27.6868 42 28.6717 41.84 31.7095 40.4202C35.7473 38.5341 40.8314 33.6173 42.6776 29.8148C43.7734 27.5577 44 26.0576 44 21.0692C44 13.8116 42.9826 11.2368 38.2227 6.44855C33.6582 1.85695 29.7687 0.221479 22.9379 0.0224926C19.5215 -0.0767138 16.538 0.156106 14.9624 0.644683ZM28.9321 4.4885C33.4171 6.08498 37.7496 10.2069 39.4276 14.4739C44.1236 26.416 35.2356 38.846 22 38.846C5.36619 38.846 -2.98899 19.6671 8.77047 8.47855C14.0203 3.48382 21.7902 1.94641 28.9321 4.4885ZM25.0173 19.6321L19.3184 25.0764L16.2505 22.1937L13.1819 19.311L12.0482 20.5026C10.9235 21.685 10.9494 21.7275 15.2529 25.8219L19.5908 29.9496L26.6405 23.2425C33.61 16.6123 33.6775 16.5223 32.5739 15.3616C31.9597 14.7159 31.29 14.1878 31.0863 14.1878C30.8826 14.1878 28.1516 16.6376 25.0173 19.6321Z" />
</svg>
