<svg width="27" height="36" viewBox="0 0 27 36" fill="none" xmlns="http://www.w3.org/2000/svg">
<path fill-rule="evenodd" clip-rule="evenodd" d="M10.5487 0.355782C6.42809 1.7296 3.70283 5.20976 3.34375 9.55801C3.20495 11.2367 2.98794 11.7814 2.38155 11.9745C1.95082 12.1117 1.23634 12.6142 0.793322 13.0912C0.0383075 13.9042 -0.0108257 14.5726 0.00145757 23.8435C0.0149692 34.2075 0.0673782 34.5271 1.90619 35.5103C3.0686 36.1314 23.1899 36.1762 24.8019 35.5612C26.9355 34.7473 26.9846 34.4848 26.9985 23.8435C27.0108 14.5726 26.9617 13.9042 26.2067 13.0912C25.7637 12.6142 25.0267 12.1048 24.5689 11.9589C23.9261 11.7543 23.7361 11.3414 23.7361 10.1512C23.7361 6.45212 21.236 2.5258 17.8561 0.916567C15.8682 -0.0299897 12.4854 -0.289635 10.5487 0.355782ZM17.2046 4.45794C18.955 5.64196 19.9799 7.41552 20.3103 9.83326L20.5719 11.749H13.5H6.42809L6.68972 9.83326C7.02014 7.41552 8.04498 5.64196 9.79535 4.45794C11.7075 3.16505 15.2925 3.16505 17.2046 4.45794ZM15.1083 20.9775C16.3682 21.6311 16.7756 22.3521 16.7756 23.9293C16.7756 26.3516 14.4937 27.8733 12.2561 26.9432C9.54887 25.8179 9.43914 22.293 12.0669 20.851C13.1712 20.2446 13.742 20.2684 15.1083 20.9775Z" fill="#44BBA4"/>
</svg>
