<svg width="293" height="189" viewBox="0 0 293 189" fill="none" xmlns="http://www.w3.org/2000/svg">
<g clip-path="url(#clip0_2_58)">
<path d="M224.328 186.863C220.577 183.443 218.298 178.04 218.896 172.781C219.493 167.522 223.194 162.687 227.995 161.57C232.796 160.453 238.268 163.545 239.726 168.604C240.529 158.849 241.453 148.686 246.26 140.378C250.613 132.856 258.152 127.474 266.322 126.511C274.492 125.548 283.095 129.185 288.19 136.143C293.286 143.1 294.533 153.215 290.965 161.204C288.336 167.088 283.492 171.467 278.417 175.03C262.019 186.446 242.351 191.088 223.032 188.103L224.328 186.863Z" fill="#E7E5DF"/>
<path d="M280.111 129.386C273.369 135.311 267.185 141.937 261.646 149.169C252.979 160.448 245.965 173.094 240.849 186.666C240.475 187.656 241.965 188.087 242.335 187.108C250.706 165.05 264.068 145.609 281.2 130.562C281.97 129.886 280.874 128.716 280.111 129.386Z" fill="white"/>
<path d="M94.3214 185.934C99.4737 181.236 102.603 173.816 101.783 166.592C100.962 159.369 95.8785 152.728 89.2847 151.194C82.6909 149.66 75.1744 153.906 73.1716 160.856C72.0694 147.457 70.7993 133.497 64.1969 122.087C58.2187 111.756 47.8642 104.363 36.6422 103.04C25.4203 101.718 13.605 106.713 6.60633 116.269C-0.392383 125.826 -2.10599 139.719 2.79573 150.691C6.40665 158.773 13.0592 164.788 20.0295 169.682C42.267 185.294 69.8527 191.805 96.1008 187.637" fill="#E7E5DF"/>
<path d="M17.7035 106.99C26.963 115.127 35.4576 124.228 43.0644 134.161C50.6725 144.084 57.3706 154.779 63.0646 166.097C66.2473 172.446 69.1064 178.978 71.6291 185.663C72.1434 187.023 70.0967 187.615 69.5881 186.27C65.1197 174.484 59.5915 163.199 53.0827 152.577C46.6056 141.993 39.1921 132.111 30.9465 123.072C26.2828 117.962 21.3621 113.132 16.2068 108.605C15.1502 107.676 16.6555 106.069 17.7035 106.99L17.7035 106.99Z" fill="white"/>
<path d="M210.32 188.586H87.3948V52.5062C87.3948 23.5541 109.226 0 136.06 0H161.655C188.489 0 210.32 23.5541 210.32 52.5062V188.586Z" fill="#F2F2F2"/>
<path d="M184.725 188.586H87.3948V52.5062C87.368 41.4124 90.6239 30.599 96.6886 21.6404C96.9121 21.3117 97.1351 20.9872 97.3651 20.6662C100.299 16.5151 103.789 12.8594 107.723 9.81955C107.945 9.64513 108.168 9.47375 108.394 9.30236C111.685 6.84507 115.245 4.83629 118.993 3.32174C119.216 3.23072 119.443 3.13952 119.669 3.05205C123.059 1.74687 126.573 0.852826 130.146 0.38643C130.367 0.353782 130.595 0.328234 130.822 0.302686C134.304 -0.0990031 137.816 -0.0990031 141.298 0.302686C141.525 0.328234 141.752 0.353778 141.976 0.386779C145.548 0.853206 149.061 1.74714 152.45 3.05206C152.677 3.13953 152.904 3.23073 153.127 3.32192C156.829 4.81737 160.347 6.79618 163.603 9.21418C163.829 9.38185 164.056 9.55324 164.279 9.72463C166.483 11.4225 168.554 13.3141 170.47 15.38C172.006 17.0371 173.438 18.8035 174.755 20.6673C174.984 20.9872 175.207 21.3117 175.431 21.6399C181.495 30.5986 184.752 41.4122 184.725 52.5062V188.586Z" fill="#E7E5DF"/>
<path d="M176.81 127.723C179.786 127.723 182.199 125.12 182.199 121.909C182.199 118.698 179.786 116.095 176.81 116.095C173.834 116.095 171.422 118.698 171.422 121.909C171.422 125.12 173.834 127.723 176.81 127.723Z" fill="#44BBA4"/>
<path d="M200.25 184.51H196.121L194.157 167.328L200.251 167.328L200.25 184.51Z" fill="#FFB8B8"/>
<path d="M193.172 183.237H201.135V188.647H188.158C188.158 187.936 188.288 187.233 188.54 186.577C188.792 185.92 189.161 185.324 189.627 184.822C190.092 184.32 190.645 183.921 191.253 183.649C191.861 183.377 192.513 183.237 193.172 183.237V183.237Z" fill="#2F2E41"/>
<path d="M220.794 184.51H216.665L214.7 167.328L220.794 167.328L220.794 184.51Z" fill="#FFB8B8"/>
<path d="M213.715 183.237H221.678V188.647H208.702C208.702 187.936 208.831 187.233 209.083 186.577C209.335 185.92 209.705 185.324 210.17 184.822C210.636 184.32 211.189 183.921 211.797 183.649C212.405 183.377 213.057 183.237 213.715 183.237V183.237Z" fill="#2F2E41"/>
<path d="M179.537 123.061C179.24 122.588 179.043 122.052 178.959 121.488C178.875 120.925 178.907 120.348 179.051 119.8C179.196 119.251 179.451 118.743 179.797 118.312C180.144 117.88 180.574 117.536 181.057 117.304L195.092 75.5653L201.999 79.6318L185.973 119.519C186.281 120.42 186.272 121.412 185.948 122.307C185.624 123.202 185.007 123.937 184.213 124.374C183.42 124.81 182.506 124.918 181.644 124.676C180.782 124.434 180.033 123.859 179.537 123.061V123.061Z" fill="#FFB8B8"/>
<path d="M218.685 130.903C218.226 130.62 217.83 130.231 217.526 129.764C217.221 129.297 217.015 128.764 216.922 128.203C216.829 127.641 216.852 127.064 216.988 126.512C217.124 125.961 217.371 125.448 217.71 125.011L213.362 80.8587L221.222 81.2461L223.029 124.676C223.672 125.34 224.068 126.236 224.14 127.193C224.212 128.151 223.956 129.104 223.421 129.871C222.885 130.639 222.107 131.168 221.234 131.358C220.361 131.549 219.454 131.387 218.685 130.903V130.903Z" fill="#FFB8B8"/>
<path d="M206.146 67.8342C210.714 67.8342 214.418 63.8385 214.418 58.9096C214.418 53.9807 210.714 49.985 206.146 49.985C201.578 49.985 197.874 53.9807 197.874 58.9096C197.874 63.8385 201.578 67.8342 206.146 67.8342Z" fill="#FFB8B8"/>
<path d="M218.632 120.862H193.694L193.724 120.653C193.769 120.34 198.169 89.2436 194.924 79.0705C194.598 78.0708 194.627 76.9764 195.004 75.9981C195.381 75.0198 196.081 74.2267 196.968 73.7714H196.968C201.606 71.4148 210.509 68.5131 218.023 75.5552C219.129 76.6085 219.993 77.925 220.546 79.4005C221.098 80.8759 221.326 82.47 221.209 84.0565L218.632 120.862Z" fill="#44BBA4"/>
<path d="M198.484 93.8391L187.257 91.3816L192.519 77.9263C192.834 76.6231 193.615 75.5078 194.691 74.8252C195.767 74.1425 197.05 73.9482 198.259 74.2849C199.468 74.6215 200.503 75.4616 201.138 76.6209C201.774 77.7803 201.957 79.1641 201.648 80.469L198.484 93.8391Z" fill="#44BBA4"/>
<path d="M212.863 98.4021L212.188 81.7086C211.676 78.5705 213.341 75.604 215.902 75.1191C218.463 74.636 220.964 76.8124 221.478 79.9736L224.015 95.572L212.863 98.4021Z" fill="#44BBA4"/>
<path d="M217.802 118.863C221.815 135.352 222.252 156.315 221.17 179.182L215.781 178.455L206.015 134.851L200.626 179.182L194.564 178.819C192.753 154.826 190.99 134.228 193.891 120.68L217.802 118.863Z" fill="#2F2E41"/>
<path d="M211.596 65.8068C210.053 67.5803 207.187 66.6282 206.986 64.2054C206.97 64.0173 206.972 63.828 206.99 63.6401C207.093 62.5669 207.668 61.5925 207.53 60.4594C207.499 60.1773 207.402 59.9086 207.248 59.6785C206.018 57.9019 203.131 60.4732 201.971 58.8648C201.259 57.8787 202.096 56.326 201.55 55.2237C200.829 53.769 198.694 54.4866 197.355 53.6899C195.866 52.8035 195.955 50.3378 196.935 48.838C198.131 47.009 200.228 46.033 202.298 45.8924C204.369 45.7517 206.425 46.3556 208.358 47.1683C210.554 48.0917 212.732 49.3679 214.083 51.4515C215.727 53.9853 215.885 57.3917 215.063 60.3545C214.563 62.1568 212.856 64.3585 211.596 65.8068Z" fill="#2F2E41"/>
<path d="M282.89 188.82H34.2465C34.1404 188.82 34.0387 188.774 33.9637 188.693C33.8888 188.612 33.8467 188.502 33.8467 188.387C33.8467 188.273 33.8888 188.163 33.9637 188.082C34.0387 188.001 34.1404 187.955 34.2465 187.955H282.89C282.997 187.955 283.098 188.001 283.173 188.082C283.248 188.163 283.29 188.273 283.29 188.387C283.29 188.502 283.248 188.612 283.173 188.693C283.098 188.774 282.997 188.82 282.89 188.82V188.82Z" fill="#3F3D56"/>
<path d="M157.951 149.161H114.169C113.592 149.165 113.038 148.921 112.628 148.484C112.217 148.047 111.984 147.452 111.98 146.83V41.3928C111.984 40.7707 112.217 40.1759 112.628 39.7389C113.038 39.3019 113.592 39.0583 114.169 39.0617H157.951C158.527 39.0583 159.081 39.3019 159.492 39.7389C159.902 40.1759 160.135 40.7707 160.14 41.3928V146.83C160.135 147.452 159.902 148.047 159.492 148.484C159.081 148.921 158.527 149.165 157.951 149.161V149.161Z" fill="white"/>
<path d="M160.14 73.1779H111.98V73.9046H160.14V73.1779Z" fill="#CCCCCC"/>
<path d="M160.308 114.642H112.148V115.368H160.308V114.642Z" fill="#CCCCCC"/>
<path d="M127.809 39.0617H127.135V149.525H127.809V39.0617Z" fill="#CCCCCC"/>
<path d="M144.648 39.0617H143.974V149.525H144.648V39.0617Z" fill="#CCCCCC"/>
</g>
<defs>
<clipPath id="clip0_2_58">
<rect width="293" height="189" fill="white"/>
</clipPath>
</defs>
</svg>
