<svg width="33" height="34" viewBox="0 0 33 34" fill="none" xmlns="http://www.w3.org/2000/svg">
<path fill-rule="evenodd" clip-rule="evenodd" d="M10.4133 0.31661C8.96443 0.767978 7.35763 2.58375 6.97596 4.20077C6.49936 6.21837 6.76468 12.9309 7.34873 13.6431C8.26831 14.7641 9.22876 17.3711 9.22876 18.7465C9.22876 20.3385 8.66581 20.8317 5.24754 22.2342C1.99605 23.5684 0 25.863 0 28.266V29.1351H8.74261H17.4852L19.3722 31.1246C22.9219 34.867 27.0581 34.9614 30.4991 31.3779C33.8336 27.9053 33.8336 23.5001 30.4991 20.0275C27.3442 16.7419 23.2341 16.5768 19.9328 19.6032C18.7008 20.7328 18.3791 20.8777 17.8099 20.5605C17.3141 20.2842 17.1391 19.8428 17.1391 18.8694C17.1391 17.5194 18.1675 14.6464 19.0109 13.6407C19.3455 13.2422 19.5277 11.8394 19.6358 8.83527C19.8422 3.10067 19.3916 2.23055 15.2225 0.310775C14.3171 -0.106268 11.7604 -0.102835 10.4133 0.31661ZM28.6701 19.9952C30.6352 21.3493 31.4767 23.0604 31.4767 25.7027C31.4767 28.3793 30.6336 30.0571 28.5762 31.475C26.7374 32.7423 23.5185 32.7917 21.649 31.5814C19.154 29.9661 17.9816 26.7589 18.7706 23.7074C19.2242 21.9531 21.2413 19.7058 22.8119 19.2054C24.5399 18.6545 27.2565 19.0207 28.6701 19.9952ZM24.3903 23.3V25.0162H22.7423C21.3142 25.0162 21.0943 25.1078 21.0943 25.7027C21.0943 26.2975 21.3142 26.3892 22.7423 26.3892H24.3903V28.1054C24.3903 29.5927 24.4783 29.8216 25.0495 29.8216C25.6207 29.8216 25.7087 29.5927 25.7087 28.1054V26.3892H27.3567C28.7848 26.3892 29.0047 26.2975 29.0047 25.7027C29.0047 25.1078 28.7848 25.0162 27.3567 25.0162H25.7087V23.3C25.7087 21.8127 25.6207 21.5837 25.0495 21.5837C24.4783 21.5837 24.3903 21.8127 24.3903 23.3Z" fill="#44BBA4"/>
</svg>
