<svg width="28" height="31" viewBox="0 0 28 31" fill="none" xmlns="http://www.w3.org/2000/svg">
<path fill-rule="evenodd" clip-rule="evenodd" d="M8.27058 0.640946C3.78476 1.80336 1.24979 3.97478 0.37279 7.40609L0 8.8625H4.08299C7.76905 8.8625 8.16545 8.7891 8.16545 8.1075C8.16545 7.69193 8.74796 6.86197 9.45975 6.26271C10.5894 5.31157 11.1344 5.17292 13.7364 5.17292C17.3946 5.17292 19.0005 6.09182 19.0005 8.18556C19.0005 10.1492 18.1954 10.9795 14.5549 12.7692C10.5792 14.7243 9.24305 16.2075 9.24037 18.669L9.23822 20.5138H12.9929C16.4205 20.5138 16.7477 20.4443 16.7477 19.7176C16.7477 18.2853 18.2651 16.7535 20.8945 15.5317C28.1974 12.1389 29.9949 7.59833 25.7107 3.36502C22.7568 0.445981 14.188 -0.891978 8.27058 0.640946ZM11.0968 24.7673C9.3691 25.2742 8.59456 26.2043 8.59456 27.7722C8.59456 29.6329 10.5937 31 13.3153 31C18.2453 31 19.6694 25.988 15.0698 24.8267C13.1142 24.3331 12.6014 24.3254 11.0968 24.7673Z" fill="#44BBA4"/>
</svg>
